<?xml version="1.0" encoding="utf-8"?>
<!-- Generator: Adobe Illustrator 26.5.0, SVG Export Plug-In . SVG Version: 6.00 Build 0)  -->
<svg version="1.1" id="Layer_1" xmlns="http://www.w3.org/2000/svg" xmlns:xlink="http://www.w3.org/1999/xlink" x="0px" y="0px"
	 viewBox="0 0 187.04 188.57" style="enable-background:new 0 0 187.04 188.57;" xml:space="preserve">
<style type="text/css">
	.st0{fill:#FFFFFF;}
	.st1{fill:#F1F1F1;}
	.st2{fill:#E2E2E2;}
	.st3{fill:#D4D4D4;}
	.st4{fill:#C5C5C5;}
	.st5{fill:#B7B7B7;}
	.st6{fill:#A8A8A8;}
	.st7{fill:#9A9A9A;}
	.st8{fill:#8B8B8B;}
	.st9{fill:#7D7D7D;}
	.st10{fill:#6E6E6E;}
	.st11{fill:#606060;}
	.st12{fill:url(#SVGID_1_);}
	.st13{opacity:0.5;fill:#8CA4AF;}
	.st14{opacity:0.4;fill:#B9E5FB;}
	.st15{opacity:0.5;fill:#FFFFFF;}
	.st16{opacity:0.7;fill:#C3E8FA;}
</style>
<g>
	<g>
		<g>
			<path class="st0" d="M95.54,8.36c-48.91,0-88.69,39.79-88.69,88.69c0,48.9,39.79,88.69,88.69,88.69
				c48.9,0,88.69-39.79,88.69-88.69C184.23,48.15,144.44,8.36,95.54,8.36z"/>
			<path class="st1" d="M95.17,7.86c-48.91,0-88.69,39.79-88.69,88.69s39.79,88.69,88.69,88.69c48.9,0,88.69-39.79,88.69-88.69
				S144.08,7.86,95.17,7.86z"/>
			<path class="st2" d="M94.81,7.36C45.9,7.36,6.11,47.14,6.11,96.05c0,48.9,39.79,88.69,88.69,88.69
				c48.9,0,88.69-39.79,88.69-88.69C183.5,47.14,143.71,7.36,94.81,7.36z"/>
			<path class="st3" d="M94.44,6.85c-48.9,0-88.69,39.79-88.69,88.69c0,48.9,39.79,88.69,88.69,88.69
				c48.9,0,88.69-39.79,88.69-88.69C183.13,46.64,143.34,6.85,94.44,6.85z"/>
			<path class="st4" d="M94.07,6.35c-48.9,0-88.69,39.79-88.69,88.69c0,48.9,39.79,88.69,88.69,88.69s88.69-39.79,88.69-88.69
				C182.76,46.14,142.97,6.35,94.07,6.35z"/>
			<path class="st5" d="M93.7,5.85C44.8,5.85,5.01,45.63,5.01,94.54s39.79,88.69,88.69,88.69c48.9,0,88.69-39.79,88.69-88.69
				S142.61,5.85,93.7,5.85z"/>
			
				<ellipse transform="matrix(0.9999 -0.013 0.013 0.9999 -1.2112 1.2179)" class="st6" cx="93.33" cy="94.03" rx="88.69" ry="88.69"/>
			<path class="st7" d="M92.97,4.84c-48.91,0-88.69,39.79-88.69,88.69c0,48.9,39.79,88.69,88.69,88.69
				c48.9,0,88.69-39.79,88.69-88.69C181.66,44.63,141.87,4.84,92.97,4.84z"/>
			<path class="st8" d="M92.6,4.34c-48.9,0-88.69,39.79-88.69,88.69c0,48.9,39.79,88.69,88.69,88.69
				c48.91,0,88.69-39.79,88.69-88.69C181.29,44.12,141.5,4.34,92.6,4.34z"/>
			<path class="st9" d="M92.23,3.83c-48.9,0-88.69,39.79-88.69,88.69c0,48.9,39.79,88.69,88.69,88.69
				c48.91,0,88.69-39.79,88.69-88.69C180.92,43.62,141.14,3.83,92.23,3.83z"/>
			<path class="st10" d="M91.86,3.33c-48.9,0-88.69,39.79-88.69,88.69c0,48.9,39.79,88.69,88.69,88.69
				c48.91,0,88.69-39.79,88.69-88.69C180.55,43.12,140.77,3.33,91.86,3.33z"/>
			<path class="st11" d="M91.5,2.83c-48.9,0-88.69,39.79-88.69,88.69c0,48.9,39.79,88.69,88.69,88.69
				c48.91,0,88.69-39.79,88.69-88.69C180.19,42.61,140.4,2.83,91.5,2.83z"/>
		</g>
		<path class="st0" d="M91.5,2.83c-48.9,0-88.69,39.79-88.69,88.69c0,48.9,39.79,88.69,88.69,88.69c48.91,0,88.69-39.79,88.69-88.69
			C180.19,42.61,140.4,2.83,91.5,2.83z"/>
	</g>
	<g>
		<g>
			<g>
				<radialGradient id="SVGID_1_" cx="-5.8923" cy="-26.1657" r="255.6673" gradientUnits="userSpaceOnUse">
					<stop  offset="0" style="stop-color:#E3F3FC"/>
					<stop  offset="0.2199" style="stop-color:#AEB7BD"/>
					<stop  offset="0.6059" style="stop-color:#8CA4AF"/>
					<stop  offset="1" style="stop-color:#393B3D"/>
				</radialGradient>
				<path class="st12" d="M175.34,91.52c0,46.3-37.54,83.84-83.84,83.84c-46.3,0-83.84-37.54-83.84-83.84
					c0-46.3,37.54-83.84,83.84-83.84C137.8,7.68,175.34,45.21,175.34,91.52z"/>
			</g>
			<path class="st13" d="M136.99,141.41c-0.34-6.14-8.07-4.44-11.72-2.76c-4.66,2.14-10.1,7.3-7.34,12.77
				c0.23,1.6,0.88,3.14,2.29,3.97c2.86,1.69,6.2,0.46,8.88-1C133.46,152.01,137.27,146.51,136.99,141.41z"/>
			<path class="st13" d="M146.71,135.37c-0.03-0.09-0.08-0.15-0.13-0.22c0-0.18-0.05-0.35-0.18-0.45c-0.3-0.23-0.5-0.35-0.88-0.4
				c-0.49-0.06-1.02,0.16-1.43,0.39c-0.82,0.46-1.48,1.29-1.73,2.19c-0.09,0.26-0.09,0.53-0.02,0.79c0.13,0.42,0.45,0.53,0.83,0.62
				c1.26,0.32,2.85-0.69,3.36-1.83C146.68,136.12,146.83,135.76,146.71,135.37z"/>
			<path class="st13" d="M143.81,108.54c-1.52-1.9-4.07-1.98-6.23-1.22c-0.28,0.1-0.57,0.22-0.86,0.36c-1.8,0.48-3.11,1.7-4.03,3.21
				c-2.11,2.48-3.33,5.73-1.65,8.44c0.27,1.52,0.95,2.9,2.29,3.7c4.09,2.45,9.63-3.92,10.81-7.13
				C144.91,113.76,145.37,110.49,143.81,108.54z"/>
			<path class="st13" d="M152.7,119.05c0-0.02,0-0.05,0-0.07c0-0.05-0.01-0.1-0.02-0.15c0.02-0.2-0.02-0.39-0.14-0.55
				c-0.08-0.09-0.17-0.17-0.28-0.23c-0.49-0.29-1.27,0.24-1.55,0.62c-0.1,0.15-0.2,0.29-0.28,0.45c-0.16,0.31-0.29,0.74-0.02,1.04
				c0.17,0.2,0.41,0.24,0.65,0.2c0.26,0.07,0.56-0.02,0.84-0.19c0,0,0.01,0,0.01-0.01c0.02-0.01,0.05-0.03,0.07-0.05
				c0.02-0.02,0.05-0.03,0.07-0.05c0.03-0.02,0.06-0.05,0.09-0.08c0.03-0.03,0.06-0.06,0.1-0.09c0.23-0.22,0.45-0.53,0.47-0.82
				C152.7,119.07,152.7,119.06,152.7,119.05z"/>
			<path class="st13" d="M102.52,145.48c-3.32-5.1-13.78-2.3-16.95,1.52c-0.33,0.4-0.65,0.86-0.93,1.35
				c-0.4,0.45-0.73,0.95-0.96,1.52c-1.61,3.9,4.8,7.39,8.07,7.02C95.7,156.45,105.99,150.8,102.52,145.48z"/>
			<path class="st13" d="M109.2,156.71c-0.16-0.2-0.51-0.26-0.74-0.2c-0.02,0-0.03,0.01-0.05,0.01c-0.14,0.04-0.3,0.1-0.46,0.19
				c-0.15,0-0.3,0.04-0.42,0.08c-0.37,0.15-0.68,0.43-0.88,0.78c-0.23,0.4-0.47,0.82-0.34,1.29c0.16,0.57,0.74,0.63,1.23,0.55
				C108.59,159.25,110.06,157.8,109.2,156.71z"/>
			<path class="st13" d="M112.89,164.17l-0.09-0.15c-0.2-0.33-0.6-0.08-0.88,0.2c0,0-0.01,0.01-0.01,0.01
				c-0.13,0.14-0.24,0.29-0.28,0.37c-0.02,0.05-0.04,0.1-0.06,0.15c-0.04,0.08-0.06,0.15-0.07,0.21c-0.12,0.44,0.28,0.5,0.71,0.36
				c0.24-0.06,0.47-0.18,0.62-0.36C113.08,164.73,113.18,164.44,112.89,164.17z"/>
			<path class="st13" d="M42.08,134.65c0.76-3.83-3.02-9.68-7.16-6.4c-1.66,1.32-1.9,2.96-1.33,4.49c0.23,1.35,0.81,2.72,1.23,3.51
				c0.7,1.33,1.83,2.4,3.45,2.27c1.39-0.11,2.52-1.07,3.2-2.27c0.16-0.22,0.28-0.46,0.34-0.71
				C41.92,135.25,42.02,134.95,42.08,134.65z"/>
			<path class="st13" d="M45.86,143.44c0-0.01,0-0.02,0.01-0.05c0-0.12,0.05-0.27-0.01-0.39c-0.09-0.16-0.18-0.31-0.28-0.47
				c-0.13-0.22-0.53-0.15-0.72-0.08c-0.4,0.16-0.68,0.48-0.83,0.86c-0.2,0.49-0.35,1.27,0.28,1.54
				C44.97,145.13,46.17,144.15,45.86,143.44z"/>
			<path class="st13" d="M161.01,74.48c-4.7,0.31-8.7,11.04-4.99,14.05c1.31,1.94,3.49,3.17,5.81,1.95
				C166.41,88.05,168.16,74,161.01,74.48z"/>
			<path class="st13" d="M118.28,55.58c-0.08-0.16-0.23-0.27-0.47-0.33c-0.06-0.01-0.12-0.01-0.17-0.01
				c0.03-0.07,0.06-0.14,0.09-0.2c0.08-0.18-0.03-0.38-0.23-0.4c-0.29-0.03-0.56,0.21-0.7,0.44c-0.08,0.13-0.17,0.26-0.25,0.4
				c-0.14,0.08-0.28,0.16-0.41,0.25c-0.56,0.4-1.39,1.26-0.86,2c0,0,0,0,0.01,0.01c-0.03,0.1-0.06,0.19-0.07,0.29
				c-0.1,0.55,0.29,0.83,0.81,0.61c0.47-0.19,0.91-0.48,1.28-0.84C118.05,57.41,119.1,56.26,118.28,55.58z"/>
			<path class="st13" d="M40.86,95c-0.85-1.67-2.64-1.61-4.11-0.81c-2.35,1.27-4.76,5.61-2.56,7.51c0.28,0.89,0.83,1.65,1.75,1.78
				c1.89,0.27,3.46-1.53,4.39-2.93C41.38,98.98,41.73,96.72,40.86,95z"/>
			<path class="st13" d="M26.07,74.74c-0.77-0.58-1.67-0.57-2.52-0.25c0.11-0.25,0-0.5-0.39-0.3c-2.13,1.11-3.5,4.16-2.55,6.46
				c0.46,1.11,1.58,1.4,2.66,1.06c1.63-0.51,2.57-1.75,3.17-3.27C26.87,77.34,27.16,75.55,26.07,74.74z"/>
			<path class="st14" d="M149.68,131.38c-4.71,4.33-10.14,6.95-15.45,10.16c0.06-0.27,0.08-0.55,0.05-0.81
				c-0.02-0.05-0.05-0.1-0.08-0.14c1.51-1.31,2.86-3.32,3.9-4.47c3.2-3.53,6.45-7.49,8.37-11.89c0.1-0.24-0.22-0.19-0.29-0.03
				c-1.51,3.31-3.82,6.12-6.09,8.93c-1.02,1.27-2.1,2.47-3.2,3.67c-0.45,0.49-2.04,2.4-3.31,3.52c-0.01,0-0.02,0-0.03,0
				c1.66-2.96,2.86-6.34,3.68-9.55c0.04-0.17-0.21-0.07-0.24,0.04c-0.94,3.28-2.38,6.32-3.93,9.32c0.72-2.34,1.32-4.73,1.8-7.12
				c0.03-0.16-0.2-0.07-0.22,0.04c-0.55,2.35-1.34,4.63-2.04,6.93c-0.63-4.45-0.72-9.11-0.76-13.57c0-0.14-0.23-0.01-0.23,0.09
				c0.01,4.6,0.08,9.38,0.72,13.96c-0.03,0.01-0.05,0.03-0.08,0.04c-0.03-0.01-0.06-0.03-0.08-0.04c-0.1-0.04-0.29,0.11-0.26,0.22
				c-0.2,0.12-0.38,0.25-0.55,0.42c-2.51-3.8-4.49-7.67-5.83-12.08c-0.04-0.12-0.26,0.03-0.23,0.14c1.28,4.49,3.16,8.43,5.76,12.22
				c-0.02,0.02-0.04,0.04-0.06,0.05c-1.52-1.93-3.82-3.26-5.47-5.07c-0.09-0.1-0.33,0.11-0.24,0.21c1.63,1.85,3.59,3.45,5.37,5.17
				c-0.01,0.01-0.02,0.02-0.03,0.03c-4.91-0.96-9.98-1.58-14.9-2.12c-0.1-0.01-0.26,0.2-0.12,0.22c4.91,0.68,9.78,1.66,14.67,2.46
				c-0.05,0.13-0.08,0.27-0.11,0.41c-1.07,0.1-2.21,0.03-3.19,0.22c-1.43,0.28-2.85,0.59-4.3,0.76c-0.12,0.01-0.25,0.25-0.07,0.24
				c1.8-0.14,3.6-0.68,5.4-0.71c0.68-0.01,1.41,0.01,2.12-0.05c0,0.18,0.01,0.36,0.05,0.52c-1.77,0.83-3.66,1.46-5.42,2.11
				c-3.79,1.4-7.48,3.7-11.44,4.53c-0.06,0.01-0.15,0.16-0.04,0.14c3.96-0.66,7.73-2.8,11.47-4.25c1.66-0.64,3.48-1.2,5.18-1.94
				c-1.07,0.71-2.24,1.32-3.24,2.04c-1.49,1.07-3.36,2.79-5.09,3.46c-0.1,0.04-0.16,0.24-0.01,0.18c1.85-0.68,3.58-2.24,5.18-3.38
				c1.01-0.72,2.19-1.29,3.26-1.98c-1.83,1.63-3.85,3.1-5.71,4.58c-3.25,2.59-6.31,5.34-10,7.31c-0.14,0.07-0.12,0.27,0.06,0.19
				c3.77-1.91,6.92-4.58,10.18-7.22c2.03-1.64,4.46-3.22,6.44-5.09c0.01,0,0.02,0,0.03,0c0.11,0,0.23-0.03,0.34-0.05
				c-1.27,2.07-2.66,4.14-4.02,6.07c-1.56,2.22-3.19,5.2-5.17,7.03c-0.16,0.14-0.02,0.3,0.14,0.16c2.17-1.86,3.74-4.72,5.42-7.02
				c1.22-1.67,2.53-3.46,3.67-5.29c-0.59,3.35-1.28,6.76-2.62,9.85c-0.03,0.07,0.07,0.06,0.09,0.01c1.58-3.32,2.78-7.32,3.3-11.07
				c0.03-0.01,0.05-0.04,0.08-0.05c0.48,1.64,1.25,3.31,1.74,4.81c0.52,1.59,2.06,5.96,3.28,6.46c-0.11-0.04-0.31,0.16-0.18,0.23
				c0.06,0.03,0.11,0.06,0.17,0.09c0.1,0.05,0.29-0.12,0.21-0.22c-1.45-1.71-2.13-4.77-3.03-6.83c-0.62-1.41-1.25-3.17-1.7-4.85
				c0.1-0.07,0.18-0.16,0.27-0.24c2.11,3.24,4.51,6.27,6.4,9.66c0.08,0.14,0.35-0.06,0.29-0.18c-1.83-3.46-4.17-6.6-6.28-9.88
				c0.06-0.07,0.12-0.15,0.17-0.22c0.48,0.22,0.97,0.4,1.47,0.58c1.81,1.4,3.71,2.7,5.56,4.04c0.12,0.08,0.39-0.19,0.27-0.28
				c-1.34-1.04-2.66-2.21-4.06-3.19c0.4,0.12,0.8,0.23,1.21,0.34c1.71,0.46,2.96,1.63,4.79,1.77c0.16,0.01,0.4-0.32,0.18-0.34
				c-2-0.17-3.52-1.46-5.4-1.98c-0.7-0.2-1.37-0.43-2.04-0.68c-0.18-0.15-0.36-0.3-0.53-0.46c0.39,0.08,0.79,0.14,1.15,0.2
				c2.25,0.36,4.58,0.56,6.84,0.69c0.15,0.01,0.38-0.3,0.17-0.32c-1.89-0.18-3.83-0.49-5.72-0.75c-0.53-0.07-1.03-0.18-1.52-0.29
				c4.59-0.96,9.06-2,13.53-3.71c0.17-0.07,0.27-0.41,0.01-0.31c-4.75,1.78-9.54,2.78-14.43,3.79c-0.13-0.04-0.26-0.08-0.39-0.12
				c5.32-3.08,10.59-6,15.15-10.28C149.98,131.4,149.84,131.24,149.68,131.38z"/>
			<path class="st14" d="M68.55,72.56c-2.23,5.99-2.61,12.01-3.58,18.14c0.23-0.16,0.47-0.28,0.73-0.35c0.06,0,0.11,0.01,0.16,0.02
				c0.64-1.89,2-3.9,2.67-5.3c2.06-4.3,4.5-8.8,7.85-12.24c0.18-0.19,0.26,0.13,0.13,0.26c-2.5,2.65-4.22,5.85-5.97,9.01
				c-0.79,1.42-1.5,2.88-2.2,4.35c-0.28,0.6-1.45,2.79-2.01,4.39c0,0.01,0.01,0.02,0.01,0.03c2.12-2.66,4.79-5.03,7.46-7.01
				c0.14-0.11,0.15,0.17,0.05,0.24c-2.68,2.11-4.96,4.59-7.15,7.16c1.89-1.55,3.88-3.01,5.92-4.35c0.14-0.09,0.14,0.16,0.05,0.22
				c-1.97,1.4-3.78,2.98-5.64,4.5c4.36-1.1,8.71-2.77,12.86-4.42c0.13-0.05,0.1,0.21,0,0.25c-4.26,1.72-8.72,3.47-13.2,4.6
				c0,0.03-0.01,0.06-0.01,0.09c0.02,0.02,0.05,0.04,0.07,0.06c0.07,0.08,0.01,0.31-0.1,0.33c-0.04,0.23-0.09,0.45-0.18,0.67
				c4.47,0.89,8.79,1.26,13.39,0.84c0.12-0.01,0.06,0.25-0.04,0.26c-4.64,0.51-9,0.26-13.49-0.73c-0.01,0.03-0.02,0.05-0.03,0.08
				c2.36,0.68,4.46,2.31,6.76,3.15c0.13,0.05,0.02,0.35-0.1,0.3c-2.33-0.81-4.55-2.02-6.81-3.03c0,0.01-0.01,0.03-0.01,0.04
				c2.73,4.18,5.23,8.65,7.59,13c0.05,0.09-0.09,0.32-0.16,0.19c-2.48-4.29-5.23-8.43-7.82-12.66c-0.1,0.1-0.22,0.18-0.34,0.26
				c0.31,1.03,0.8,2.06,1,3.04c0.29,1.43,0.52,2.86,0.92,4.27c0.03,0.11-0.14,0.33-0.19,0.16c-0.55-1.72-0.72-3.59-1.38-5.27
				c-0.25-0.64-0.54-1.3-0.75-1.98c-0.16,0.07-0.33,0.13-0.5,0.15c-0.1,1.95,0.03,3.94,0.09,5.82c0.14,4.04-0.6,8.32,0.12,12.3
				c0.01,0.07-0.09,0.19-0.11,0.09c-0.89-3.92-0.32-8.22-0.39-12.22c-0.03-1.78-0.2-3.67-0.15-5.53c-0.25,1.25-0.38,2.57-0.67,3.77
				c-0.43,1.78-1.32,4.17-1.29,6.02c0,0.11-0.16,0.24-0.17,0.07c-0.07-1.96,0.72-4.16,1.18-6.07c0.29-1.21,0.37-2.52,0.6-3.77
				c-0.82,2.3-1.42,4.73-2.09,7.01c-1.17,3.99-2.57,7.86-3,12.02c-0.02,0.16-0.21,0.21-0.2,0.01c0.34-4.21,1.64-8.13,2.85-12.15
				c0.75-2.5,1.3-5.34,2.28-7.89c0-0.01-0.01-0.01-0.01-0.02c-0.04-0.11-0.06-0.22-0.08-0.34c-1.43,1.96-2.83,4.03-4.11,6.01
				c-1.46,2.28-3.61,4.92-4.56,7.45c-0.07,0.2-0.27,0.13-0.21-0.07c0.91-2.71,2.96-5.25,4.45-7.66c1.09-1.75,2.25-3.64,3.51-5.39
				c-2.88,1.81-5.77,3.73-8.13,6.14c-0.06,0.06-0.08-0.04-0.04-0.08c2.48-2.72,5.73-5.33,9.01-7.24c0-0.03,0.01-0.06,0.01-0.09
				c-1.7,0.17-3.54,0.09-5.11,0.2c-1.67,0.12-6.3,0.34-7.22-0.59c0.08,0.08-0.03,0.34-0.14,0.25c-0.05-0.04-0.1-0.08-0.14-0.12
				c-0.09-0.07,0-0.32,0.12-0.28c2.13,0.7,5.23,0.18,7.47,0.23c1.54,0.04,3.4-0.04,5.13-0.26c0.03-0.11,0.08-0.22,0.12-0.34
				c-3.79-0.73-7.51-1.82-11.36-2.28c-0.16-0.02-0.08-0.35,0.06-0.33c3.89,0.38,7.68,1.37,11.52,2.09c0.04-0.08,0.1-0.16,0.14-0.25
				c-0.38-0.36-0.74-0.75-1.09-1.14c-1.98-1.14-3.9-2.41-5.83-3.62c-0.12-0.08,0.03-0.43,0.16-0.36c1.47,0.85,3.05,1.63,4.48,2.56
				c-0.26-0.33-0.51-0.66-0.77-0.99c-1.07-1.41-2.62-2.12-3.45-3.77c-0.07-0.14,0.15-0.49,0.24-0.3c0.91,1.79,2.68,2.71,3.88,4.25
				c0.45,0.57,0.92,1.11,1.4,1.63c0.21,0.11,0.41,0.22,0.62,0.32c-0.22-0.34-0.43-0.68-0.62-0.99c-1.18-1.95-2.25-4.03-3.22-6.08
				c-0.06-0.13,0.13-0.47,0.23-0.28c0.88,1.68,1.9,3.36,2.85,5.01c0.27,0.46,0.55,0.89,0.84,1.3c-0.84-4.61-1.57-9.15-1.67-13.93
				c0-0.18,0.28-0.4,0.28-0.12c0.15,5.08,1.02,9.89,1.93,14.8c0.08,0.11,0.17,0.21,0.26,0.31c0.84-6.09,1.56-12.07,3.8-17.91
				C68.42,72.29,68.62,72.36,68.55,72.56z"/>
			<path class="st15" d="M65.24,91.17c-0.36-0.06-0.71,0.1-0.99,0.36c-0.1,0.06-0.2,0.14-0.29,0.24c-0.41,0.43-0.59,1.11-0.6,1.69
				c-0.01,0.54,0.25,1.14,0.88,1.05c0.83-0.12,1.41-0.99,1.64-1.73C66.08,92.1,66.05,91.31,65.24,91.17z"/>
			<path class="st15" d="M134.41,140.7c-0.15,0-0.3,0.03-0.45,0.06c-0.35-0.03-0.91,0.24-1.16,0.42c-0.7,0.48-1.43,1.15-1.31,2.06
				c0.1,0.77,1.22,0.63,1.7,0.42c1-0.44,1.65-1.46,1.59-2.55C134.76,140.91,134.64,140.69,134.41,140.7z"/>
			<path class="st15" d="M166.22,106.78c-0.06-0.53-0.29-1.17-0.84-1.36c-0.57-0.2-1.13,0.1-1.57,0.45
				c-0.76,0.6-1.29,1.79-1.24,2.74c0.02,0.29,0.07,0.65,0.24,0.92c0.02,0.09,0.04,0.18,0.08,0.25c0.45,0.99,1.64,0.33,2.17-0.2
				C165.84,108.78,166.35,107.9,166.22,106.78z"/>
			<path class="st15" d="M166.62,112.23c-0.02-0.05-0.05-0.09-0.08-0.11c0,0,0-0.01,0-0.01c0-0.04,0-0.08-0.02-0.11
				c0-0.01-0.01-0.01-0.02-0.02c-0.01-0.03-0.02-0.06-0.03-0.08c-0.08-0.31-0.54-0.1-0.68,0.03c-0.29,0.26-0.58,0.54-0.67,0.93
				c-0.12,0.52,0.49,0.46,0.75,0.2c0.05-0.05,0.08-0.09,0.12-0.13c0.15,0,0.3-0.08,0.4-0.17c0.01,0,0.01-0.01,0.02-0.01
				C166.53,112.62,166.68,112.42,166.62,112.23z"/>
			<path class="st15" d="M59.86,154.69c-0.33-0.16-0.68-0.06-0.98,0.15c-0.65-0.12-1.22,0.48-1.38,1.07
				c-0.32,1.23,1.15,2.55,2.33,2.21c0.68-0.19,1.1-0.9,1.05-1.58C60.83,155.88,60.49,154.99,59.86,154.69z"/>
			<path class="st15" d="M64.28,159.28c-0.08-0.22-0.32-0.3-0.53-0.32c-0.33-0.03-0.93,0.53-0.53,0.79
				c0.06,0.04,0.27,0.12,0.27,0.11c0.13,0.1,0.41,0.07,0.57-0.08c0.01,0,0.01-0.01,0.02-0.01
				C64.19,159.66,64.35,159.46,64.28,159.28z"/>
			<path class="st15" d="M131.46,77.94c-0.46-0.81-1.19-0.68-1.85-0.25c-0.18,0.08-0.35,0.2-0.48,0.35
				c-0.03,0.03-0.05,0.07-0.07,0.1c-0.42,0.4-0.76,0.86-0.91,1.18c-0.36,0.79-0.73,2.43,0.13,3.05c0.02,0.03,0.03,0.06,0.06,0.08
				c0.46,0.46,1.22,0.13,1.66-0.17C131.35,81.38,132.31,79.45,131.46,77.94z"/>
			<path class="st15" d="M131.48,85.06c-0.15-0.32-0.51-0.11-0.71,0.12c-0.01,0-0.01,0-0.02,0.01c-0.18,0.1-0.48,0.46-0.29,0.67
				C130.89,86.32,131.73,85.57,131.48,85.06z"/>
			<path class="st15" d="M23.71,89.95c-0.02-0.01-0.03-0.02-0.04-0.03c-0.02-0.03-0.04-0.07-0.06-0.11
				c-0.03-0.05-0.05-0.08-0.07-0.12c-0.07-0.62-0.38-1.11-1.12-1.11c-0.34,0-0.64,0.11-0.91,0.28c-0.69,0.21-1.12,1.23-1.16,1.97
				c-0.03,0.58,0.08,1.24,0.46,1.7c0.37,0.43,0.98,0.38,1.45,0.15c0,0.01,0.01,0.02,0.01,0.02c0.03,0.25,0.41,0.02,0.4-0.16
				c0-0.05,0-0.1,0-0.15c0.27-0.26,0.52-0.73,0.69-1.25c0.23-0.02,0.54-0.33,0.55-0.52c0-0.08,0-0.15-0.02-0.22
				C23.93,90.25,23.9,90.08,23.71,89.95z"/>
			<path class="st15" d="M23.11,95.07c-0.25-0.18-0.67,0.28-0.59,0.55c-0.02,0.06-0.03,0.12,0,0.17l0.05,0.11
				c0.01,0.09,0.03,0.19,0.12,0.22c0.09,0.03,0.17,0.05,0.26,0.03c0.24-0.05,0.57-0.29,0.55-0.57C23.5,95.35,23.29,95.2,23.11,95.07
				z"/>
			<path class="st15" d="M141.47,37.77c-0.3-0.49-1.15,0.13-1.36,0.39c-0.26,0.31-0.39,0.82-0.03,1.03
				c0.03,0.13,0.08,0.25,0.15,0.38c0.2,0.34,0.8-0.13,0.91-0.45c0.04-0.03,0.08-0.05,0.12-0.08c0.19-0.17,0.28-0.37,0.37-0.59
				C141.74,38.18,141.6,37.98,141.47,37.77z"/>
		</g>
		<path class="st13" d="M91.5,7.68c-46.3,0-83.84,37.54-83.84,83.84c0,46.3,37.54,83.84,83.84,83.84c46.3,0,83.84-37.54,83.84-83.84
			C175.34,45.21,137.8,7.68,91.5,7.68z M85.23,152.68c-38.32,0-69.38-31.07-69.38-69.38c0-38.32,31.06-69.38,69.38-69.38
			c38.32,0,69.38,31.07,69.38,69.38C154.62,121.61,123.55,152.68,85.23,152.68z"/>
		<path class="st16" d="M27.31,135.84c-11.34-17.92-15.23-33.56-16-45.58c-0.01-0.04-0.01-0.08-0.02-0.12
			c-0.46-3.83-0.65-7.66-0.54-11.47c-2.19,12.53-2.29,32.33,10.33,54.12c21.33,36.82,61.08,42.61,81.09,39.19
			C102.17,171.98,53.63,177.44,27.31,135.84z"/>
	</g>
</g>
</svg>
